<?xml version="1.0" encoding="UTF-8"?>
<!DOCTYPE svg PUBLIC "-//W3C//DTD SVG 1.1//EN" "http://www.w3.org/Graphics/SVG/1.1/DTD/svg11.dtd">
<svg xmlns="http://www.w3.org/2000/svg" version="1.1" width="764px" height="264px" style="shape-rendering:geometricPrecision; text-rendering:geometricPrecision; image-rendering:optimizeQuality; fill-rule:evenodd; clip-rule:evenodd" xmlns:xlink="http://www.w3.org/1999/xlink">
<g><path style="opacity:0.921" fill="#fefffe" d="M 130.5,-0.5 C 135.5,-0.5 140.5,-0.5 145.5,-0.5C 344.016,12.9679 542.682,26.4679 741.5,40C 752.682,43.3501 760.016,50.5167 763.5,61.5C 763.5,117.167 763.5,172.833 763.5,228.5C 758.167,228.5 752.833,228.5 747.5,228.5C 747.667,174.166 747.5,119.832 747,65.5C 745.911,61.8139 743.745,58.9806 740.5,57C 539.036,42.898 337.536,29.0646 136,15.5C 132.415,16.1645 130.581,18.3311 130.5,22C 131.637,42.1463 131.804,62.3129 131,82.5C 123.875,101.978 110.375,108.478 90.5,102C 81.5363,97.5734 76.3697,90.4067 75,80.5C 74.9658,66.4064 74.2991,52.4064 73,38.5C 65.012,31.7389 58.012,32.7389 52,41.5C 49.8788,59.527 50.0455,77.527 52.5,95.5C 72.2462,99.7459 84.0796,111.746 88,131.5C 88.6667,152.5 88.6667,173.5 88,194.5C 79.811,222.865 60.9776,234.365 31.5,229C 15.3886,224.385 4.72196,214.219 -0.5,198.5C -0.5,174.5 -0.5,150.5 -0.5,126.5C 4.08481,114.411 12.0848,105.245 23.5,99C 27.6293,97.0511 31.9627,95.8844 36.5,95.5C 36.0366,75.7656 36.5366,56.099 38,36.5C 47.0572,19.8145 60.2239,15.3145 77.5,23C 84.5616,27.6184 88.7282,34.1184 90,42.5C 90.3333,54.8333 90.6667,67.1667 91,79.5C 92.5778,85.7448 96.5778,89.0781 103,89.5C 109.324,88.5091 112.991,84.8424 114,78.5C 114.333,57.1667 114.667,35.8333 115,14.5C 118.106,7.22525 123.272,2.22525 130.5,-0.5 Z M 39.5,109.5 C 56.5062,108.237 67.6728,115.57 73,131.5C 73.9561,153.551 73.6228,175.551 72,197.5C 63.5506,212.881 50.7173,218.381 33.5,214C 22.9952,210.506 16.4952,203.339 14,192.5C 13.3333,172.167 13.3333,151.833 14,131.5C 17.7757,118.55 26.2757,111.216 39.5,109.5 Z"/></g>
<g><path style="opacity:0.909" fill="#fefffe" d="M 463.5,82.5 C 479.503,82.3334 495.503,82.5001 511.5,83C 513.434,89.2113 514.101,95.7113 513.5,102.5C 494.83,102.333 476.164,102.5 457.5,103C 455.048,103.29 452.715,103.956 450.5,105C 448.291,108.377 446.291,111.877 444.5,115.5C 441.618,114.039 438.618,112.873 435.5,112C 432.399,111.145 429.732,109.645 427.5,107.5C 430.13,100.396 434.13,94.2291 439.5,89C 447.222,85.3633 455.222,83.1966 463.5,82.5 Z"/></g>
<g><path style="opacity:0.909" fill="#fefffe" d="M 159.5,110.5 C 163.846,110.334 168.179,110.501 172.5,111C 179.968,115.033 181.801,120.867 178,128.5C 173.47,134.171 167.637,136.004 160.5,134C 153.403,130.744 150.903,125.244 153,117.5C 154.018,113.985 156.185,111.652 159.5,110.5 Z"/></g>
<g><path style="opacity:0.921" fill="#fefffe" d="M 311.5,110.5 C 317.833,110.5 324.167,110.5 330.5,110.5C 330.333,140.835 330.5,171.168 331,201.5C 331.406,204.494 332.906,206.661 335.5,208C 346.5,208.667 357.5,208.667 368.5,208C 370.286,207.215 371.786,206.049 373,204.5C 374.454,173.203 374.954,141.869 374.5,110.5C 380.833,110.5 387.167,110.5 393.5,110.5C 393.333,139.502 393.5,168.502 394,197.5C 395.5,203 399,206.5 404.5,208C 416.264,208.957 427.93,208.623 439.5,207C 441.768,205.442 442.934,203.276 443,200.5C 443.5,190.506 443.666,180.506 443.5,170.5C 450.167,170.5 456.833,170.5 463.5,170.5C 463.92,183.228 463.42,195.894 462,208.5C 459.322,217.178 453.822,223.345 445.5,227C 432.557,228.589 419.557,228.922 406.5,228C 399.059,226.697 392.892,223.197 388,217.5C 383.334,222.917 377.501,226.417 370.5,228C 359.5,228.667 348.5,228.667 337.5,228C 325.06,227.05 316.56,220.883 312,209.5C 310.21,176.459 310.043,143.459 311.5,110.5 Z"/></g>
<g><path style="opacity:0.929" fill="#fefffe" d="M 469.5,110.5 C 475.833,110.5 482.167,110.5 488.5,110.5C 488.5,149.833 488.5,189.167 488.5,228.5C 482.167,228.5 475.833,228.5 469.5,228.5C 469.5,189.167 469.5,149.833 469.5,110.5 Z"/></g>
<g><path style="opacity:0.938" fill="#fefffe" d="M 578.5,110.5 C 584.833,110.5 591.167,110.5 597.5,110.5C 597.333,139.502 597.5,168.502 598,197.5C 598.413,200.232 599.08,202.899 600,205.5C 601.491,207.004 603.324,207.837 605.5,208C 618.57,208.942 631.57,208.609 644.5,207C 646.604,204.958 647.771,202.458 648,199.5C 648.5,189.839 648.666,180.172 648.5,170.5C 655.167,170.5 661.833,170.5 668.5,170.5C 668.334,180.172 668.5,189.839 669,199.5C 669.958,204.79 673.124,207.624 678.5,208C 689.5,208.667 700.5,208.667 711.5,208C 714.542,207.445 716.375,205.612 717,202.5C 718.176,191.877 718.343,181.211 717.5,170.5C 724.167,170.5 730.833,170.5 737.5,170.5C 744.908,220.248 723.908,239.414 674.5,228C 668.624,227.379 663.458,225.212 659,221.5C 655.195,224.319 651.029,226.486 646.5,228C 633.5,228.667 620.5,228.667 607.5,228C 597.299,227.814 588.799,223.981 582,216.5C 580.725,214.283 579.725,211.949 579,209.5C 578.5,176.502 578.333,143.502 578.5,110.5 Z"/></g>
<g><path style="opacity:0.886" fill="#fefffe" d="M 39.5,119.5 C 46.2439,118.282 50.4106,120.949 52,127.5C 52.8216,135.555 52.4883,143.555 51,151.5C 46.3912,157.736 41.3912,158.069 36,152.5C 35.0266,150.608 34.3599,148.608 34,146.5C 33.4635,139.137 33.7968,131.804 35,124.5C 36.025,122.313 37.525,120.646 39.5,119.5 Z"/></g>
<g><path style="opacity:0.93" fill="#fefffe" d="M 201.5,125.5 C 207.833,125.5 214.167,125.5 220.5,125.5C 220.071,136.245 220.571,146.912 222,157.5C 224.1,160.467 226.934,162.3 230.5,163C 246.833,163.667 263.167,163.667 279.5,163C 281.815,161.891 283.315,160.057 284,157.5C 284.5,146.839 284.667,136.172 284.5,125.5C 291.167,125.5 297.833,125.5 304.5,125.5C 304.898,138.219 304.398,150.886 303,163.5C 299.807,173.359 293.307,179.859 283.5,183C 266.5,183.667 249.5,183.667 232.5,183C 227.849,182.258 224.016,180.092 221,176.5C 221.093,195.812 213.593,211.312 198.5,223C 193.184,225.994 187.518,227.994 181.5,229C 167.5,229.667 153.5,229.667 139.5,229C 120.009,224.176 107.842,212.009 103,192.5C 102.5,176.17 102.333,159.837 102.5,143.5C 108.833,143.5 115.167,143.5 121.5,143.5C 121.333,159.17 121.5,174.837 122,190.5C 125.645,200.142 132.478,206.309 142.5,209C 155.167,209.667 167.833,209.667 180.5,209C 190.165,206.667 196.665,200.834 200,191.5C 201.445,169.545 201.945,147.545 201.5,125.5 Z"/></g>
<g><path style="opacity:0.925" fill="#fefffe" d="M 552.5,125.5 C 559.167,125.5 565.833,125.5 572.5,125.5C 572.667,146.836 572.5,168.169 572,189.5C 568.395,208.438 557.562,221.271 539.5,228C 525.885,229.406 512.218,229.906 498.5,229.5C 498.5,222.833 498.5,216.167 498.5,209.5C 509.888,209.883 521.221,209.383 532.5,208C 542.627,205.537 549.127,199.37 552,189.5C 552.5,168.169 552.667,146.836 552.5,125.5 Z"/></g>
<g><path style="opacity:0.911" fill="#fefffe" d="M 430.5,130.5 C 442.446,130.271 447.28,135.938 445,147.5C 440.605,155.103 434.105,157.603 425.5,155C 418.514,150.567 416.347,144.4 419,136.5C 422.044,132.73 425.878,130.73 430.5,130.5 Z"/></g>
<g><path style="opacity:0.916" fill="#fefffe" d="M 704.5,130.5 C 719.131,131.429 723.131,138.429 716.5,151.5C 710.741,155.831 704.408,156.664 697.5,154C 692.283,148.704 691.116,142.537 694,135.5C 696.951,132.45 700.451,130.784 704.5,130.5 Z"/></g>
<g><path style="opacity:0.893" fill="#fefffe" d="M 249.5,206.5 C 255.456,205.943 260.623,207.61 265,211.5C 268.505,221.482 265.005,227.482 254.5,229.5C 243.911,228.269 239.744,222.603 242,212.5C 243.707,209.41 246.207,207.41 249.5,206.5 Z"/></g>
<g><path style="opacity:0.887" fill="#fefffe" d="M 284.5,206.5 C 290.456,205.943 295.623,207.61 300,211.5C 302.988,221.519 299.322,227.519 289,229.5C 277.951,228.049 273.951,222.049 277,211.5C 279.17,209.177 281.67,207.51 284.5,206.5 Z"/></g>
<g><path style="opacity:0.915" fill="#fefffe" d="M 637.5,263.5 C 633.833,263.5 630.167,263.5 626.5,263.5C 618.92,259.875 616.42,253.875 619,245.5C 622.015,240.828 626.348,238.828 632,239.5C 643.291,239.127 647.624,244.461 645,255.5C 642.972,258.692 640.472,261.359 637.5,263.5 Z"/></g>
</svg>
