<?xml version="1.0" encoding="iso-8859-1"?>
<!-- Generator: Adobe Illustrator 19.0.0, SVG Export Plug-In . SVG Version: 6.00 Build 0)  -->
<svg version="1.1" id="Layer_1" xmlns="http://www.w3.org/2000/svg" xmlns:xlink="http://www.w3.org/1999/xlink" x="0px" y="0px"
	 viewBox="0 0 199.496 199.496" style="enable-background:new 0 0 199.496 199.496;" xml:space="preserve">
<g>
	<g>
		<g>
			<path d="M196,115.498h-10.5v-13.993c0-2.682-0.798-5.166-2.113-7.298c1.241-0.538,2.113-1.768,2.113-3.208V73.506
				c0-2.682-0.798-5.166-2.113-7.298c1.241-0.538,2.113-1.769,2.113-3.209V45.505c0-7.725-6.296-14.007-14.031-14.007h-52.438
				c-7.735,0-14.031,6.282-14.031,14.007v17.493c0,1.44,0.871,2.671,2.113,3.208c-1.315,2.132-2.113,4.616-2.113,7.299v17.493
				c0,1.44,0.871,2.671,2.113,3.208c-1.315,2.132-2.113,4.616-2.113,7.299v13.993H77v-21c0-1.934-1.566-3.5-3.5-3.5h-35
				c-1.562,0-2.936,1.036-3.367,2.54l-6.272,21.96h-2.628c-12.366,0-23.341,10.011-24.459,22.319l-1.76,19.363
				c-0.089,0.981,0.239,1.952,0.902,2.68c0.663,0.725,1.599,1.138,2.584,1.138h10.79c1.029,0,2.006-0.455,2.673-1.241
				c0.663-0.786,0.95-1.825,0.779-2.84c-0.161-0.954-0.243-1.938-0.243-2.919c0-9.649,7.851-17.5,17.5-17.5s17.5,7.851,17.5,17.5
				c0,0.981-0.082,1.965-0.243,2.919c-0.171,1.015,0.116,2.054,0.779,2.84c0.666,0.786,1.644,1.241,2.673,1.241h17.791h70.29
				c1.029,0,2.006-0.455,2.673-1.241c0.663-0.786,0.95-1.825,0.779-2.84c-0.161-0.954-0.243-1.938-0.243-2.919
				c0-9.649,7.851-17.5,17.5-17.5s17.5,7.851,17.5,17.5c0,0.981-0.082,1.965-0.243,2.919c-0.171,1.015,0.116,2.054,0.779,2.84
				c0.666,0.786,1.643,1.241,2.672,1.241h10.79c1.934,0,3.5-1.566,3.5-3.5v-38.5C199.5,117.064,197.934,115.498,196,115.498z
				 M69.999,153.998h-10.5c0.001-13.508-10.991-24.5-24.499-24.5s-24.5,10.992-24.5,24.5H7.331l1.415-15.545
				c0.8-8.798,8.644-15.955,17.486-15.955h43.767V153.998z M69.999,115.498H36.141l4.997-17.5h28.861V115.498z M112,45.505
				c0-3.863,3.155-7.007,7.031-7.007h52.438c3.876,0,7.031,3.144,7.031,7.007v13.993h-7.031h-52.438H112V45.505z M112,73.505
				c0-3.862,3.155-7.007,7.031-7.007h52.438c3.876,0,7.031,3.144,7.031,7.007v13.993h-7.031h-52.438H112V73.505z M119.031,94.498
				h52.438c3.876,0,7.031,3.144,7.031,7.007v13.993H112c0,0,0-13.993,0-13.993C112,97.643,115.155,94.498,119.031,94.498z
				 M192.5,153.998H189c0-13.508-10.992-24.5-24.5-24.5s-24.5,10.992-24.5,24.5H77v-31.5h31.5H182h10.5V153.998z"/>
			<path d="M164.5,139.998c-7.721,0-14,6.279-14,14s6.279,14,14,14c7.721,0,14-6.279,14-14S172.221,139.998,164.5,139.998z
				 M164.5,160.998c-3.859,0-7-3.141-7-7s3.141-7,7-7c3.859,0,7,3.141,7,7S168.358,160.998,164.5,160.998z"/>
			<path d="M35,139.998c-7.721,0-14,6.279-14,14s6.279,14,14,14c7.721,0,14-6.279,14-14S42.721,139.998,35,139.998z M35,160.998
				c-3.859,0-7-3.141-7-7s3.141-7,7-7c3.859,0,7,3.141,7,7S38.858,160.998,35,160.998z"/>
		</g>
	</g>
</g>
<g>
</g>
<g>
</g>
<g>
</g>
<g>
</g>
<g>
</g>
<g>
</g>
<g>
</g>
<g>
</g>
<g>
</g>
<g>
</g>
<g>
</g>
<g>
</g>
<g>
</g>
<g>
</g>
<g>
</g>
</svg>
